<svg width="31" height="30" viewBox="0 0 31 30" fill="none" xmlns="http://www.w3.org/2000/svg">
<path d="M0.299807 18.0522C0.131915 18.0522 0 17.9246 0 17.7621V13.4739C0 13.3114 0.131915 13.1837 0.299807 13.1837C0.467698 13.1837 0.599613 13.3114 0.599613 13.4739V17.7621C0.599613 17.9246 0.467698 18.0522 0.299807 18.0522ZM15.8178 30H10.6251C9.65977 30 8.86828 29.2398 8.86828 28.2998V22.5377C8.86828 21.9226 8.34662 21.4178 7.71103 21.4178H1.75687C0.79149 21.4178 0 20.6576 0 19.7176V18.9807C0 18.8182 0.131915 18.6905 0.299807 18.6905C0.467698 18.6905 0.599613 18.8182 0.599613 18.9807V19.7176C0.599613 20.3327 1.12128 20.8375 1.75687 20.8375H7.71103C8.6764 20.8375 9.46789 21.5977 9.46789 22.5377V28.2998C9.46789 28.9149 9.98956 29.4197 10.6251 29.4197H15.8178C15.9857 29.4197 16.1176 29.5474 16.1176 29.7099C16.1176 29.8723 15.9857 30 15.8178 30Z" fill="#15AAAA"/>
<path d="M20.3749 30H17.083C16.9151 30 16.7832 29.8723 16.7832 29.7099C16.7832 29.5474 16.9151 29.4197 17.083 29.4197H20.3749C21.0104 29.4197 21.5321 28.9149 21.5321 28.2998V22.5377C21.5321 21.6035 22.3176 20.8375 23.289 20.8375H29.2431C29.8787 20.8375 30.4004 20.3327 30.4004 19.7176V10.2824C30.4004 9.66731 29.8787 9.16248 29.2431 9.16248H23.289C22.3236 9.16248 21.5321 8.40232 21.5321 7.46228V1.70019C21.5321 1.08511 21.0104 0.580271 20.3749 0.580271H10.6251C9.98956 0.580271 9.46789 1.08511 9.46789 1.70019V7.46228C9.46789 8.39652 8.6824 9.16248 7.71102 9.16248H1.75687C1.12128 9.16248 0.599613 9.66731 0.599613 10.2824V11.6286C0.599613 11.7911 0.467698 11.9188 0.299807 11.9188C0.131915 11.9188 0 11.7911 0 11.6286V10.2824C0 9.34816 0.785493 8.5822 1.75687 8.5822H7.71102C8.34661 8.5822 8.86828 8.07737 8.86828 7.46228V1.70019C8.86828 0.765957 9.65377 0 10.6251 0H20.3749C21.3402 0 22.1317 0.760154 22.1317 1.70019V7.46228C22.1317 8.07737 22.6534 8.5822 23.289 8.5822H29.2431C30.2085 8.5822 31 9.34236 31 10.2824V19.7176C31 20.6518 30.2145 21.4178 29.2431 21.4178H23.289C22.6534 21.4178 22.1317 21.9226 22.1317 22.5377V28.2998C22.1317 29.234 21.3462 30 20.3749 30Z" fill="#15AAAA"/>
<path d="M26.377 6.42944C26.2091 6.42944 26.0772 6.30178 26.0772 6.13931V3.84144C26.0772 3.67896 26.2091 3.5513 26.377 3.5513C26.5449 3.5513 26.6768 3.67896 26.6768 3.84144V6.13931C26.6768 6.30178 26.5449 6.42944 26.377 6.42944Z" fill="#15AAAA"/>
<path d="M27.5642 5.2805H25.1898C25.0219 5.2805 24.8899 5.15284 24.8899 4.99036C24.8899 4.82789 25.0219 4.70023 25.1898 4.70023H27.5642C27.7321 4.70023 27.864 4.82789 27.864 4.99036C27.864 5.15284 27.7321 5.2805 27.5642 5.2805Z" fill="#15AAAA"/>
<path d="M15.5 21.3076C15.3321 21.3076 15.2002 21.18 15.2002 21.0175V8.98847C15.2002 8.82599 15.3321 8.69833 15.5 8.69833C15.6679 8.69833 15.7998 8.82599 15.7998 8.98847V21.0175C15.7998 21.18 15.6679 21.3076 15.5 21.3076Z" fill="#15AAAA"/>
<path d="M21.712 15.2959H9.28201C9.11412 15.2959 8.9822 15.1683 8.9822 15.0058C8.9822 14.8433 9.11412 14.7157 9.28201 14.7157H21.712C21.8799 14.7157 22.0118 14.8433 22.0118 15.0058C22.0118 15.1683 21.8799 15.2959 21.712 15.2959Z" fill="#15AAAA"/>
<path d="M5.44449 27.6906C5.34255 27.6906 5.24062 27.6383 5.18665 27.5455L3.99342 25.5552C3.90948 25.4159 3.95745 25.2418 4.10136 25.1606C4.24526 25.0794 4.43114 25.1258 4.50909 25.265L5.70232 27.2554C5.78627 27.3946 5.7383 27.5687 5.59439 27.65C5.54642 27.679 5.49246 27.6906 5.44449 27.6906Z" fill="#15AAAA"/>
<path d="M3.81953 27.2727C3.7176 27.2727 3.61567 27.2205 3.5617 27.1276C3.47775 26.9884 3.52572 26.8143 3.66963 26.7331L5.72631 25.5783C5.87021 25.4971 6.05609 25.5435 6.13404 25.6828C6.21799 25.822 6.17002 25.9961 6.02611 26.0774L3.96944 27.2321C3.92147 27.2611 3.8675 27.2727 3.81953 27.2727Z" fill="#15AAAA"/>
<path d="M27.1455 25.7143C26.4464 25.7143 25.8743 25.1802 25.8743 24.5275C25.8743 23.8747 26.4464 23.3407 27.1455 23.3407C27.8446 23.3407 28.4167 23.8747 28.4167 24.5275C28.4167 25.1802 27.8446 25.7143 27.1455 25.7143ZM27.1455 23.9341C26.7959 23.9341 26.5099 24.2011 26.5099 24.5275C26.5099 24.8539 26.7959 25.1209 27.1455 25.1209C27.4951 25.1209 27.7811 24.8539 27.7811 24.5275C27.7811 24.2011 27.4951 23.9341 27.1455 23.9341ZM2.99339 4.94507C2.29425 4.94507 1.72222 4.411 1.72222 3.75825C1.72222 3.10551 2.29425 2.57144 2.99339 2.57144C3.69253 2.57144 4.26455 3.10551 4.26455 3.75825C4.26455 4.411 3.69253 4.94507 2.99339 4.94507ZM2.99339 3.16485C2.64382 3.16485 2.3578 3.43188 2.3578 3.75825C2.3578 4.08463 2.64382 4.35166 2.99339 4.35166C3.34296 4.35166 3.62897 4.08463 3.62897 3.75825C3.62897 3.43188 3.34296 3.16485 2.99339 3.16485Z" fill="#15AAAA"/>
</svg>
