<svg width="24" height="29" viewBox="0 0 24 29" fill="none" xmlns="http://www.w3.org/2000/svg">
<path d="M15.828 12.8318C18.0225 11.6255 19.5 9.42362 19.5 6.90476C19.5 3.09748 16.1355 0 12 0C7.8645 0 4.5 3.09748 4.5 6.90476C4.5 9.42362 5.9775 11.6255 8.172 12.8318C3.429 13.8461 0 16.6833 0 20.0238V28.3095C0 28.6907 0.336 29 0.75 29H23.25C23.664 29 24 28.6907 24 28.3095V20.0238C24 16.6833 20.571 13.8461 15.828 12.8318ZM12.5303 26.0358C12.384 26.1704 12.192 26.2381 12 26.2381C11.808 26.2381 11.616 26.1704 11.4697 26.0358C9.47775 24.2019 6.75 21.6906 6.75 19.3333C6.75 17.8101 8.0955 16.5714 9.75 16.5714C10.6447 16.5714 11.4502 16.9339 12 17.5084C12.5498 16.9339 13.3553 16.5714 14.25 16.5714C15.9045 16.5714 17.25 17.8101 17.25 19.3333C17.25 21.6906 14.5223 24.2019 12.5303 26.0358ZM15.75 19.3333C15.75 20.9415 13.6605 23.0246 12 24.5692C10.3395 23.0246 8.25 20.9415 8.25 19.3333C8.25 18.5717 8.92275 17.9524 9.75 17.9524C10.5773 17.9524 11.25 18.5717 11.25 19.3333C11.25 19.7145 11.586 20.0238 12 20.0238C12.414 20.0238 12.75 19.7145 12.75 19.3333C12.75 18.5717 13.4227 17.9524 14.25 17.9524C15.0773 17.9524 15.75 18.5717 15.75 19.3333Z" fill="#15AAAA"/>
</svg>
